<svg width="40" height="39" viewBox="0 0 40 39" fill="none" xmlns="http://www.w3.org/2000/svg">
<rect x="0.850708" y="0.282227" width="38.4357" height="38.4357" rx="19.2178" fill="white" fill-opacity="0.8"/>
<path d="M23.4554 29.1671C23.3995 29.1671 23.3342 29.1578 23.2783 29.1392C21.4055 28.6081 19.4394 28.6081 17.5666 29.1392C17.2218 29.2324 16.8584 29.0367 16.7652 28.6919C16.6627 28.3472 16.8677 27.9838 17.2125 27.8906C19.3183 27.2943 21.5359 27.2943 23.6417 27.8906C23.9865 27.9931 24.1915 28.3472 24.089 28.6919C23.9958 28.9808 23.7349 29.1671 23.4554 29.1671Z" fill="black"/>
<path d="M27.1358 14.5942C26.1667 12.6375 24.2939 11.1932 22.1228 10.718C19.8493 10.2149 17.5199 10.7553 15.7402 12.1902C13.9512 13.6158 12.9355 15.7496 12.9355 18.0325C12.9355 20.4457 14.3798 22.9709 16.5601 24.4337V25.2071C16.5508 25.468 16.5415 25.8687 16.8583 26.1948C17.1844 26.5302 17.669 26.5675 18.051 26.5675H22.831C23.3341 26.5675 23.7162 26.4277 23.9771 26.1668C24.3311 25.8034 24.3218 25.3376 24.3125 25.086V24.4337C27.201 22.4863 29.018 18.3772 27.1358 14.5942ZM22.0203 19.4953L21.0233 21.2284C20.8929 21.4521 20.66 21.5825 20.4177 21.5825C20.2966 21.5825 20.1754 21.5546 20.0729 21.4893C19.7375 21.2937 19.6257 20.865 19.812 20.5389L20.604 19.1599H19.8214C19.3555 19.1599 18.9734 18.9549 18.7685 18.6102C18.5635 18.2561 18.5821 17.8275 18.815 17.4175L19.812 15.6844C20.0077 15.3489 20.4363 15.2371 20.7624 15.4235C21.0979 15.6192 21.2097 16.0478 21.0233 16.3739L20.2313 17.7529H21.014C21.4799 17.7529 21.8619 17.9579 22.0669 18.3027C22.2719 18.6567 22.2533 19.0947 22.0203 19.4953Z" fill="black"/>
</svg>
