<svg width="39" height="39" viewBox="0 0 39 39" fill="none" xmlns="http://www.w3.org/2000/svg">
<rect x="0.564087" y="0.282227" width="38.4357" height="38.4357" rx="19.2178" fill="white" fill-opacity="0.8"/>
<path d="M26.9704 21.4707L26.0387 19.9239C25.843 19.5792 25.6659 18.9269 25.6659 18.5449V16.1875C25.6659 13.9979 24.3801 12.1064 22.5259 11.2212C22.0413 10.3639 21.1468 9.83282 20.1219 9.83282C19.1063 9.83282 18.1931 10.3826 17.7086 11.2491C15.8916 12.1529 14.6337 14.0258 14.6337 16.1875V18.5449C14.6337 18.9269 14.4567 19.5792 14.261 19.9146L13.3199 21.4707C12.9472 22.095 12.8634 22.7845 13.0963 23.4181C13.3199 24.0424 13.8511 24.5269 14.5406 24.7598C16.3482 25.3748 18.249 25.673 20.1498 25.673C22.0507 25.673 23.9515 25.3748 25.7591 24.7692C26.4114 24.5549 26.9145 24.061 27.1568 23.4181C27.399 22.7752 27.3338 22.067 26.9704 21.4707Z" fill="black"/>
<path d="M22.7682 26.6141C22.3768 27.695 21.3426 28.4683 20.1313 28.4683C19.3952 28.4683 18.6684 28.1702 18.1559 27.6391C17.8577 27.3595 17.6341 26.9868 17.5037 26.6048C17.6248 26.6234 17.7459 26.6327 17.8764 26.6514C18.0907 26.6793 18.3143 26.7073 18.5379 26.7259C19.069 26.7725 19.6095 26.8005 20.1499 26.8005C20.681 26.8005 21.2121 26.7725 21.7339 26.7259C21.9296 26.7073 22.1253 26.698 22.3116 26.67C22.4607 26.6514 22.6098 26.6328 22.7682 26.6141Z" fill="black"/>
</svg>
