<svg width="39" height="39" viewBox="0 0 39 39" fill="none" xmlns="http://www.w3.org/2000/svg">
<rect x="0.137207" y="0.282227" width="38.4357" height="38.4357" rx="19.2178" fill="white" fill-opacity="0.8"/>
<path d="M27.2521 16.5602C25.5656 16.5602 24.876 15.3676 25.7146 13.9047C26.1992 13.0568 25.9103 11.9759 25.0624 11.4914L23.4504 10.5689C22.7143 10.131 21.7639 10.3919 21.326 11.128L21.2235 11.305C20.3849 12.7679 19.0059 12.7679 18.158 11.305L18.0555 11.128C17.6362 10.3919 16.6858 10.131 15.9497 10.5689L14.3377 11.4914C13.4898 11.9759 13.2009 13.0661 13.6854 13.914C14.5334 15.3676 13.8438 16.5602 12.1573 16.5602C11.1883 16.5602 10.387 17.3522 10.387 18.3306V19.9705C10.387 20.9396 11.179 21.7409 12.1573 21.7409C13.8438 21.7409 14.5334 22.9336 13.6854 24.3965C13.2009 25.2444 13.4898 26.3252 14.3377 26.8098L15.9497 27.7322C16.6858 28.1701 17.6362 27.9092 18.0741 27.1731L18.1766 26.9961C19.0152 25.5332 20.3942 25.5332 21.2421 26.9961L21.3446 27.1731C21.7826 27.9092 22.733 28.1701 23.4691 27.7322L25.081 26.8098C25.929 26.3252 26.2178 25.2351 25.7333 24.3965C24.8854 22.9336 25.5749 21.7409 27.2614 21.7409C28.2304 21.7409 29.0318 20.9489 29.0318 19.9705V18.3306C29.0224 17.3616 28.2304 16.5602 27.2521 16.5602ZM19.7047 22.1788C18.0368 22.1788 16.6764 20.8184 16.6764 19.1506C16.6764 17.4827 18.0368 16.1223 19.7047 16.1223C21.3726 16.1223 22.733 17.4827 22.733 19.1506C22.733 20.8184 21.3726 22.1788 19.7047 22.1788Z" fill="black"/>
</svg>
