<svg width="22" height="20" viewBox="0 0 22 20" fill="none" xmlns="http://www.w3.org/2000/svg">
<path d="M20.4136 3.25766L20.414 3.25841C21.4903 5.47959 21.1315 8.08214 18.9146 11.1547L18.9128 11.1572C17.1789 13.5759 14.6783 16.0218 11.0033 18.9141C7.32534 16.0172 4.82789 13.5499 3.0912 11.1535C0.868053 8.0814 0.509555 5.47924 1.58574 3.25841L1.5861 3.25766C2.29178 1.79831 4.43689 0.465809 7.07021 1.22603C8.32624 1.59186 9.42368 2.37648 10.1823 3.45357L10.9998 4.61444L11.8174 3.45357C12.5762 2.37619 13.674 1.59145 14.9305 1.22574L14.9331 1.22498C17.5533 0.454635 19.7061 1.79452 20.4136 3.25766Z" stroke="#DC8400" stroke-width="2"/>
</svg>
