<svg width="20" height="20" viewBox="0 0 20 20" fill="none" xmlns="http://www.w3.org/2000/svg">
<path d="M1.58579 1.58579C1.94592 1.22565 2.42925 1.01705 2.93672 1.001H3H17C17.5304 1.001 18.0391 1.21171 18.4142 1.58679C18.7893 1.96186 19 2.47057 19 3.001V11.001C19 11.5314 18.7893 12.0401 18.4142 12.4152C18.0391 12.7903 17.5304 13.001 17 13.001H10.042H9.71005L9.44399 13.1995L3 18.0075V18.006V14V13H2C1.73478 13 1.48043 12.8946 1.29289 12.7071C1.10536 12.5196 1 12.2652 1 12V3C1 2.46957 1.21071 1.96086 1.58579 1.58579Z" stroke="#DC8400" stroke-width="2"/>
</svg>
