<svg width="28" height="18" viewBox="0 0 28 18" fill="none" xmlns="http://www.w3.org/2000/svg">
<path d="M1 17C2.48775 14.6419 5.7484 13.0279 10.8355 13.0279C15.9225 13.0279 19.1832 14.6419 20.6709 17M21.6121 11.2398C24.306 12.5198 25.653 13.7998 27 16.3598M18.8103 1.45605C20.0779 2.10404 20.9396 3.37641 20.9396 4.84004C20.9396 6.26138 20.127 7.50236 18.9191 8.16632M14.8764 4.84C14.8764 6.96077 13.0672 8.68 10.8355 8.68C8.60373 8.68 6.79455 6.96077 6.79455 4.84C6.79455 2.71923 8.60373 1 10.8355 1C13.0672 1 14.8764 2.71923 14.8764 4.84Z" stroke="#DC8400" stroke-width="2" stroke-linecap="round"/>
</svg>
