<svg width="18" height="17" viewBox="0 0 18 17" fill="none" xmlns="http://www.w3.org/2000/svg">
<path d="M17.2806 7.72646C17.6126 7.94556 17.9181 8.16289 17.9181 8.92708C17.9181 9.69306 17.4862 10.003 17.0241 10.2186C17.213 10.5094 17.2733 10.8587 17.192 11.1912C17.0468 11.8039 16.4526 12.2796 15.9245 12.4203C16.1527 12.7659 16.2244 13.1061 15.9528 13.5247C15.6039 14.0502 15.3002 14.2497 13.9573 14.2497H8.48754C6.62406 14.2497 5.65836 13.2771 5.65836 12.4684V8.30896C5.65836 6.11791 8.4253 4.25642 8.4253 2.73337L8.22537 0.836252C8.21594 0.720465 8.24046 0.437232 8.33477 0.355291C8.48566 0.214565 8.90249 -0.000976562 9.53245 -0.000976562C9.94363 -0.000976562 10.2171 0.0720581 10.5396 0.218128C11.6355 0.711558 11.9203 1.96027 11.9203 2.96495C11.9203 3.44769 11.1394 4.89414 11.0338 5.39469C11.0338 5.39469 12.6691 5.05267 14.5778 5.04021C16.579 5.02952 17.8767 5.37866 17.8767 6.54009C17.8767 7.00502 17.4636 7.47173 17.2806 7.72646ZM1.13167 7.12437H2.64057C2.94071 7.12437 3.22855 7.23697 3.44078 7.43741C3.65301 7.63785 3.77224 7.90971 3.77224 8.19317V14.9622C3.77224 15.2457 3.65301 15.5176 3.44078 15.718C3.22855 15.9184 2.94071 16.0311 2.64057 16.0311H1.13167C0.831534 16.0311 0.543689 15.9184 0.331459 15.718C0.119229 15.5176 0 15.2457 0 14.9622V8.19317C0 7.90971 0.119229 7.63785 0.331459 7.43741C0.543689 7.23697 0.831534 7.12437 1.13167 7.12437Z" fill="#65676B"/>
</svg>
