<svg width="31" height="29" viewBox="0 0 31 29" fill="none" xmlns="http://www.w3.org/2000/svg">
<path d="M29.8847 14.0214C30.4446 14.3909 30.96 14.7575 30.96 16.0466C30.96 17.3386 30.2315 17.8614 29.452 18.225C29.7706 18.7156 29.8723 19.3048 29.7352 19.8656C29.4902 20.8992 28.488 21.7015 27.5972 21.9389C27.9822 22.5218 28.1031 23.0957 27.6449 23.8018C27.0563 24.6882 26.5441 25.0247 24.2789 25.0247H15.0526C11.9092 25.0247 10.2803 23.3841 10.2803 22.02V15.0039C10.2803 11.3081 14.9476 8.16812 14.9476 5.59906L14.6103 2.39901C14.5944 2.2037 14.6358 1.72595 14.7949 1.58773C15.0494 1.35036 15.7525 0.986782 16.8151 0.986782C17.5087 0.986782 17.97 1.10998 18.514 1.35637C20.3625 2.18868 20.8429 4.29501 20.8429 5.98968C20.8429 6.80397 19.5257 9.24382 19.3476 10.0882C19.3476 10.0882 22.1059 9.51124 25.3256 9.49021C28.7012 9.47218 30.89 10.0611 30.89 12.0202C30.89 12.8044 30.1933 13.5917 29.8847 14.0214ZM2.64474 13.0058H5.18993C5.6962 13.0058 6.18174 13.1957 6.53973 13.5338C6.89771 13.8719 7.09883 14.3305 7.09883 14.8086V26.2266C7.09883 26.7048 6.89771 27.1633 6.53973 27.5014C6.18174 27.8395 5.6962 28.0295 5.18993 28.0295H2.64474C2.13847 28.0295 1.65293 27.8395 1.29494 27.5014C0.936955 27.1633 0.73584 26.7048 0.73584 26.2266V14.8086C0.73584 14.3305 0.936955 13.8719 1.29494 13.5338C1.65293 13.1957 2.13847 13.0058 2.64474 13.0058Z" fill="#E61739"/>
</svg>
