<svg width="12" height="13" viewBox="0 0 12 13" fill="none" xmlns="http://www.w3.org/2000/svg">
<path d="M7.81886 6.50001C7.81886 7.42806 7.06893 8.17799 6.14088 8.17799C5.21283 8.17799 4.46289 7.42806 4.46289 6.50001C4.46289 5.57196 5.21283 4.82202 6.14088 4.82202C7.06893 4.82202 7.81886 5.57196 7.81886 6.50001Z" stroke="#AAAAAA" stroke-width="0.66171" stroke-linecap="round" stroke-linejoin="round"/>
<path d="M6.14103 10.3763C7.79558 10.3763 9.33764 9.40139 10.411 7.71403C10.8328 7.05315 10.8328 5.9423 10.411 5.28142C9.33764 3.59406 7.79558 2.61914 6.14103 2.61914C4.48648 2.61914 2.94442 3.59406 1.87107 5.28142C1.44923 5.9423 1.44923 7.05315 1.87107 7.71403C2.94442 9.40139 4.48648 10.3763 6.14103 10.3763Z" stroke="#AAAAAA" stroke-width="0.66171" stroke-linecap="round" stroke-linejoin="round"/>
</svg>
