<svg width="12" height="12" viewBox="0 0 12 12" fill="none" xmlns="http://www.w3.org/2000/svg">
<path d="M5.9964 5.77124C5.94953 5.76655 5.89329 5.76655 5.84173 5.77124C4.7262 5.73374 3.84033 4.81975 3.84033 3.69485C3.84033 2.5465 4.76838 1.61377 5.92141 1.61377C7.06975 1.61377 8.00249 2.5465 8.00249 3.69485C7.9978 4.81975 7.11194 5.73374 5.9964 5.77124Z" stroke="#AAAAAA" stroke-width="0.66171" stroke-linecap="round" stroke-linejoin="round"/>
<path d="M3.65296 7.50073C2.51868 8.26004 2.51868 9.49744 3.65296 10.2521C4.94191 11.1145 7.0558 11.1145 8.34476 10.2521C9.47904 9.49275 9.47904 8.25535 8.34476 7.50073C7.06049 6.64299 4.9466 6.64299 3.65296 7.50073Z" stroke="#AAAAAA" stroke-width="0.66171" stroke-linecap="round" stroke-linejoin="round"/>
</svg>
