<svg width="37" height="38" viewBox="0 0 37 38" fill="none" xmlns="http://www.w3.org/2000/svg">
<circle cx="18.5784" cy="18.9857" r="18.3929" fill="#BB3ADB"/>
<path d="M9.01465 25.6071C10.1513 23.6554 12.6425 22.3196 16.5291 22.3196C20.4156 22.3196 22.9068 23.6554 24.0435 25.6071M24.7625 20.8395C26.8207 21.899 27.8498 22.9584 28.8789 25.0773M22.6219 12.7417C23.5904 13.2781 24.2487 14.3312 24.2487 15.5426C24.2487 16.719 23.6279 17.7462 22.7051 18.2957M19.6164 15.5426C19.6164 17.2979 18.2341 18.7209 16.5291 18.7209C14.824 18.7209 13.4417 17.2979 13.4417 15.5426C13.4417 13.7873 14.824 12.3643 16.5291 12.3643C18.2341 12.3643 19.6164 13.7873 19.6164 15.5426Z" stroke="white" stroke-width="1.47143" stroke-linecap="round"/>
</svg>
