<svg width="37" height="37" viewBox="0 0 37 37" fill="none" xmlns="http://www.w3.org/2000/svg">
<circle cx="18.5784" cy="18.4857" r="18.3929" fill="#6AB068"/>
<path d="M9.01465 25.1071C10.1513 23.1554 12.6425 21.8196 16.5291 21.8196C20.4156 21.8196 22.9068 23.1554 24.0435 25.1071M24.7625 20.3395C26.8207 21.399 27.8498 22.4584 28.8789 24.5773M22.6219 12.2417C23.5904 12.7781 24.2487 13.8312 24.2487 15.0426C24.2487 16.219 23.6279 17.2462 22.7051 17.7957M19.6164 15.0426C19.6164 16.7979 18.2341 18.2209 16.5291 18.2209C14.824 18.2209 13.4417 16.7979 13.4417 15.0426C13.4417 13.2873 14.824 11.8643 16.5291 11.8643C18.2341 11.8643 19.6164 13.2873 19.6164 15.0426Z" stroke="white" stroke-width="1.47143" stroke-linecap="round"/>
</svg>
