<svg width="32" height="32" viewBox="0 0 32 32" fill="none" xmlns="http://www.w3.org/2000/svg">
<path d="M19.3892 10.3601L12.1585 17.592C12.0364 17.7099 11.939 17.851 11.872 18.0069C11.805 18.1629 11.7698 18.3307 11.7683 18.5004C11.7668 18.6701 11.7992 18.8385 11.8634 18.9956C11.9277 19.1527 12.0226 19.2954 12.1427 19.4155C12.2627 19.5355 12.4054 19.6304 12.5626 19.6947C12.7197 19.759 12.888 19.7913 13.0578 19.7899C13.2275 19.7884 13.3952 19.7531 13.5512 19.6861C13.7072 19.6191 13.8483 19.5217 13.9662 19.3996L21.1981 12.169C21.9174 11.4497 22.3215 10.4741 22.3215 9.45687C22.3215 8.43963 21.9174 7.46405 21.1981 6.74475C20.4788 6.02544 19.5032 5.62135 18.486 5.62135C17.4687 5.62135 16.4931 6.02544 15.7738 6.74475L8.54193 13.9767C7.93606 14.5674 7.45354 15.2726 7.12234 16.0514C6.79114 16.8301 6.61787 17.6668 6.61256 18.513C6.60726 19.3592 6.77004 20.1981 7.09145 20.9809C7.41287 21.7637 7.88652 22.4749 8.48493 23.0732C9.08335 23.6716 9.79461 24.1451 10.5775 24.4664C11.3603 24.7877 12.1992 24.9504 13.0454 24.945C13.8916 24.9395 14.7283 24.7661 15.507 24.4348C16.2857 24.1035 16.9908 23.6209 17.5815 23.0149L24.8134 15.7843L26.6211 17.592L19.3892 24.8239C18.5581 25.6549 17.5716 26.3141 16.4858 26.7638C15.4 27.2136 14.2363 27.4451 13.0611 27.4451C11.8858 27.4451 10.7221 27.2136 9.63634 26.7638C8.55057 26.3141 7.56401 25.6549 6.73299 24.8239C5.90198 23.9929 5.24278 23.0063 4.79304 21.9205C4.3433 20.8348 4.11182 19.671 4.11182 18.4958C4.11182 17.3206 4.3433 16.1568 4.79304 15.0711C5.24278 13.9853 5.90198 12.9987 6.73299 12.1677L13.9662 4.93709C15.1717 3.77273 16.7864 3.12845 18.4623 3.14302C20.1383 3.15758 21.7415 3.82982 22.9266 5.01495C24.1117 6.20008 24.784 7.80327 24.7985 9.47924C24.8131 11.1552 24.1688 12.7698 23.0045 13.9754L15.7738 21.2098C15.4176 21.566 14.9947 21.8485 14.5293 22.0412C14.0638 22.234 13.565 22.3331 13.0613 22.3331C12.5575 22.333 12.0587 22.2337 11.5933 22.0409C11.128 21.8481 10.7051 21.5655 10.3489 21.2092C9.99279 20.853 9.71028 20.4301 9.51756 19.9646C9.32484 19.4992 9.22568 19.0004 9.22574 18.4966C9.2258 17.9929 9.32507 17.4941 9.51791 17.0287C9.71074 16.5633 9.99334 16.1405 10.3496 15.7843L17.5815 8.5524L19.3892 10.3601Z" fill="#A6ADB5"/>
</svg>
