<svg width="28" height="29" viewBox="0 0 28 29" fill="none" xmlns="http://www.w3.org/2000/svg">
<path d="M13.9548 2.05952C14.6977 2.05952 15.4333 2.20584 16.1197 2.49014C16.806 2.77443 17.4297 3.19113 17.955 3.71643C18.4803 4.24174 18.897 4.86537 19.1813 5.55172C19.4656 6.23806 19.6119 6.97369 19.6119 7.71658V14.5051C19.6119 16.0054 19.0159 17.4443 17.955 18.5052C16.8941 19.5661 15.4552 20.1621 13.9548 20.1621C12.4545 20.1621 11.0156 19.5661 9.95466 18.5052C8.89375 17.4443 8.29774 16.0054 8.29774 14.5051V7.71658C8.29774 6.21624 8.89375 4.77734 9.95466 3.71643C11.0156 2.65553 12.4545 2.05952 13.9548 2.05952ZM2.85791 16.7249L5.07774 16.2802C5.49002 18.3309 6.59953 20.1755 8.21776 21.5008C9.836 22.8261 11.8632 23.5502 13.9548 23.5502C16.0465 23.5502 18.0736 22.8261 19.6919 21.5008C21.3101 20.1755 22.4196 18.3309 22.8319 16.2802L25.0517 16.7249C24.0199 21.9102 19.4422 25.8192 13.9548 25.8192C8.46746 25.8192 3.88976 21.9102 2.85791 16.7249Z" fill="#A6ADB5"/>
</svg>
