<svg width="19" height="18" viewBox="0 0 19 18" fill="none" xmlns="http://www.w3.org/2000/svg">
<path d="M14.7385 1L17.9592 4.22072M17.9592 4.22072L15.1147 7.06815M17.9592 4.22072L10.6411 4.22072M15.9261 15.1285C15.9261 15.1285 14.9397 16.0973 14.698 16.3814C14.3042 16.8016 13.8403 17 13.2321 17C13.1736 17 13.1112 17 13.0527 16.9961C11.8948 16.9222 10.8187 16.4708 10.0117 16.0857C7.80496 15.0196 5.86727 13.506 4.25707 11.5879C2.92759 9.98876 2.03867 8.51025 1.44995 6.9228C1.08737 5.95398 0.954809 5.19917 1.01329 4.48715C1.05228 4.03192 1.22772 3.65451 1.55132 3.33158L2.88081 2.00481C3.07185 1.82583 3.27458 1.72856 3.47342 1.72856C3.71904 1.72856 3.91788 1.87641 4.04264 2.00092C4.04654 2.00481 4.05044 2.0087 4.05434 2.01259C4.29216 2.23437 4.51829 2.46392 4.75612 2.70905C4.87698 2.83355 5.00174 2.95806 5.1265 3.08645L6.19087 4.14865C6.60414 4.56107 6.60414 4.94237 6.19087 5.3548C6.0778 5.46763 5.96864 5.58046 5.85557 5.68941C5.52808 6.02402 5.78534 5.76727 5.44615 6.07076C5.43835 6.07854 5.43055 6.08243 5.42666 6.09021C5.09136 6.42482 5.15374 6.75165 5.22392 6.97343C5.22782 6.9851 5.23172 6.99677 5.23562 7.00844C5.51243 7.67766 5.90231 8.30797 6.49492 9.0589L6.49882 9.06279C7.57488 10.3857 8.70943 11.4167 9.96094 12.2066C10.1208 12.3077 10.2845 12.3894 10.4405 12.4673C10.5808 12.5373 10.7134 12.6034 10.8265 12.6735C10.8421 12.6812 10.8577 12.6929 10.8733 12.7007C11.0058 12.7668 11.1306 12.798 11.2592 12.798C11.5828 12.798 11.7856 12.5956 11.8518 12.5295L12.6161 11.7669C12.7486 11.6346 12.9591 11.475 13.2048 11.475C13.4465 11.475 13.6453 11.6268 13.7662 11.7591C13.7701 11.763 13.7701 11.763 13.774 11.7669L15.9222 13.9107C16.3238 14.3076 15.9261 15.1285 15.9261 15.1285Z" stroke="black" stroke-opacity="0.6" stroke-width="1.6551" stroke-linecap="round" stroke-linejoin="round"/>
</svg>
