<svg width="50" height="50" viewBox="0 0 50 50" fill="none" xmlns="http://www.w3.org/2000/svg">
<circle cx="25" cy="25" r="25" fill="#CE4545"/>
<path d="M12 34C13.545 31.3471 16.931 29.5314 22.2138 29.5314C27.4965 29.5314 30.8826 31.3471 32.4275 34M33.4049 27.5198C36.2024 28.9598 37.6012 30.3998 39 33.2798M30.4953 16.5131C31.8117 17.242 32.7065 18.6735 32.7065 20.32C32.7065 21.9191 31.8626 23.3152 30.6083 24.0621M26.4101 20.32C26.4101 22.7059 24.5313 24.64 22.2138 24.64C19.8962 24.64 18.0174 22.7059 18.0174 20.32C18.0174 17.9341 19.8962 16 22.2138 16C24.5313 16 26.4101 17.9341 26.4101 20.32Z" stroke="white" stroke-width="2" stroke-linecap="round"/>
</svg>
