<svg width="39" height="39" viewBox="0 0 39 39" fill="none" xmlns="http://www.w3.org/2000/svg">
<circle cx="19.474" cy="19.5524" r="18.869" fill="#1DA1F2"/>
<path d="M9.66211 26.3452C10.8282 24.3429 13.3839 22.9725 17.3711 22.9725C21.3583 22.9725 23.9139 24.3429 25.08 26.3452M25.8177 21.4542C27.9292 22.5411 28.9849 23.6279 30.0407 25.8016M23.6217 13.1468C24.6152 13.697 25.2906 14.7773 25.2906 16.0201C25.2906 17.227 24.6537 18.2807 23.707 18.8445M20.5383 16.0201C20.5383 17.8209 19.1203 19.2807 17.3711 19.2807C15.6218 19.2807 14.2038 17.8209 14.2038 16.0201C14.2038 14.2193 15.6218 12.7595 17.3711 12.7595C19.1203 12.7595 20.5383 14.2193 20.5383 16.0201Z" stroke="white" stroke-width="1.50952" stroke-linecap="round"/>
</svg>
