<svg width="18" height="18" viewBox="0 0 18 18" fill="none" xmlns="http://www.w3.org/2000/svg">
<path d="M9.18071 0.520203C4.43563 0.520203 0.588379 4.36884 0.588379 9.11253C0.588379 13.859 4.43563 17.7049 9.18071 17.7049C13.9258 17.7049 17.773 13.859 17.773 9.11253C17.773 4.36884 13.9258 0.520203 9.18071 0.520203ZM9.18071 4.33132C9.98437 4.33132 10.6359 4.98281 10.6359 5.78647C10.6359 6.59013 9.98437 7.24162 9.18071 7.24162C8.37705 7.24162 7.72556 6.59013 7.72556 5.78647C7.72556 4.98281 8.37705 4.33132 9.18071 4.33132ZM11.1209 13.1315C11.1209 13.3611 10.9348 13.5473 10.7052 13.5473H7.65626C7.42666 13.5473 7.24051 13.3611 7.24051 13.1315V12.3C7.24051 12.0704 7.42666 11.8843 7.65626 11.8843H8.07202V9.66688H7.65626C7.42666 9.66688 7.24051 9.48072 7.24051 9.25112V8.4196C7.24051 8.19 7.42666 8.00385 7.65626 8.00385H9.87364C10.1032 8.00385 10.2894 8.19 10.2894 8.4196V11.8843H10.7052C10.9348 11.8843 11.1209 12.0704 11.1209 12.3V13.1315Z" fill="#8C939D"/>
</svg>
