<svg width="16" height="16" viewBox="0 0 16 16" fill="none" xmlns="http://www.w3.org/2000/svg">
<path d="M9.63621 5.59487C11.399 7.35944 11.3748 10.1885 9.64683 11.926C9.64359 11.9296 9.63975 11.9334 9.63621 11.9369L7.65358 13.9196C5.9049 15.6682 3.05991 15.668 1.3115 13.9196C-0.437168 12.1712 -0.437168 9.32587 1.3115 7.5775L2.40626 6.48275C2.69658 6.19243 3.19654 6.38539 3.21153 6.79566C3.23065 7.31852 3.32441 7.84383 3.49742 8.35111C3.55601 8.52288 3.51415 8.71288 3.38581 8.84122L2.99969 9.22733C2.17283 10.0542 2.1469 11.4006 2.96562 12.2355C3.79242 13.0787 5.15141 13.0837 5.98456 12.2505L7.9672 10.2682C8.79893 9.43648 8.79545 8.09213 7.9672 7.26388C7.85801 7.15489 7.74802 7.07022 7.6621 7.01106C7.60132 6.96933 7.55114 6.91396 7.51555 6.84939C7.47997 6.78482 7.45997 6.71282 7.45714 6.63914C7.44546 6.32738 7.55592 6.00612 7.80227 5.75976L8.42344 5.13857C8.58633 4.97568 8.84186 4.95568 9.03074 5.0875C9.24705 5.23854 9.44966 5.40832 9.63621 5.59487ZM13.7943 1.4366C12.0459 -0.311836 9.20089 -0.312072 7.45222 1.4366L5.46958 3.41923C5.46604 3.42277 5.4622 3.4266 5.45896 3.43014C3.73106 5.16766 3.70683 7.99672 5.46958 9.76129C5.65613 9.94783 5.85872 10.1176 6.07502 10.2686C6.2639 10.4004 6.51946 10.3804 6.68232 10.2176L7.30349 9.59636C7.54984 9.35001 7.6603 9.02874 7.64862 8.71698C7.6458 8.64331 7.62579 8.57131 7.59021 8.50674C7.55462 8.44216 7.50444 8.3868 7.44366 8.34506C7.35775 8.28591 7.24776 8.20123 7.13856 8.09225C6.31031 7.264 6.30683 5.91964 7.13856 5.08791L9.1212 3.10558C9.95435 2.27243 11.3133 2.27744 12.1401 3.12062C12.9589 3.95557 12.933 5.30193 12.1061 6.12879L11.72 6.5149C11.5916 6.64324 11.5497 6.83325 11.6083 7.00502C11.7814 7.5123 11.8751 8.03761 11.8942 8.56047C11.9092 8.97074 12.4092 9.16369 12.6995 8.87338L13.7943 7.77863C15.543 6.03028 15.543 3.18497 13.7943 1.4366Z" fill="white" fill-opacity="0.7"/>
</svg>
