<svg width="18" height="19" viewBox="0 0 18 19" fill="none" xmlns="http://www.w3.org/2000/svg">
<path d="M1.96329 6.90979H16.3984M1.96329 12.0652H16.3984M8.75123 1.75439C7.30372 4.07399 6.53631 6.7533 6.53631 9.48749C6.53631 12.2217 7.30372 14.901 8.75123 17.2206M9.61047 1.75439C11.058 4.07399 11.8254 6.7533 11.8254 9.48749C11.8254 12.2217 11.058 14.901 9.61047 17.2206M16.9139 9.48749C16.9139 13.7584 13.4517 17.2206 9.18085 17.2206C4.90998 17.2206 1.44775 13.7584 1.44775 9.48749C1.44775 5.21662 4.90998 1.75439 9.18085 1.75439C13.4517 1.75439 16.9139 5.21662 16.9139 9.48749Z" stroke="#8C939D" stroke-width="1.71847" stroke-linecap="round" stroke-linejoin="round"/>
</svg>
