<svg width="26" height="25" viewBox="0 0 26 25" fill="none" xmlns="http://www.w3.org/2000/svg">
<rect x="0.729004" width="24.972" height="24.972" rx="3.1215" fill="#FFDDBD"/>
<path d="M16.0919 10.2853C16.0555 10.2801 16.0191 10.2801 15.9827 10.2853C15.1763 10.2593 14.5364 9.59856 14.5364 8.78697C14.5364 7.95977 15.2075 7.28345 16.0399 7.28345C16.8671 7.28345 17.5434 7.95457 17.5434 8.78697C17.5382 9.59856 16.8983 10.2593 16.0919 10.2853Z" fill="#B36116"/>
<path d="M17.788 13.8907C17.2053 14.2808 16.3885 14.4265 15.6342 14.3277C15.8319 13.9011 15.9359 13.4276 15.9411 12.9282C15.9411 12.4079 15.8267 11.9137 15.6082 11.4819C16.3781 11.3779 17.1949 11.5235 17.7828 11.9137C18.6048 12.4548 18.6048 13.3444 17.788 13.8907Z" fill="#B36116"/>
<path d="M10.3223 10.2853C10.3587 10.2801 10.3951 10.2801 10.4315 10.2853C11.2379 10.2593 11.8778 9.59856 11.8778 8.78697C11.8778 7.95457 11.2067 7.28345 10.3743 7.28345C9.5471 7.28345 8.87598 7.95457 8.87598 8.78697C8.87598 9.59856 9.51588 10.2593 10.3223 10.2853Z" fill="#B36116"/>
<path d="M10.3795 12.9282C10.3795 13.4328 10.4888 13.9114 10.6864 14.3433C9.9529 14.4213 9.18813 14.2652 8.62626 13.8958C7.80427 13.3496 7.80427 12.4599 8.62626 11.9137C9.18293 11.5391 9.9685 11.3882 10.7073 11.4715C10.494 11.9085 10.3795 12.4027 10.3795 12.9282Z" fill="#B36116"/>
<path d="M13.2772 14.4993C13.2356 14.4941 13.1888 14.4941 13.1419 14.4993C12.1847 14.4681 11.4199 13.6826 11.4199 12.7149C11.4251 11.7264 12.2211 10.9252 13.2148 10.9252C14.2033 10.9252 15.0044 11.7264 15.0044 12.7149C14.9992 13.6826 14.2397 14.4681 13.2772 14.4993Z" fill="#B36116"/>
<path d="M11.5867 15.5763C10.8012 16.1017 10.8012 16.9653 11.5867 17.4856C12.4816 18.0839 13.9487 18.0839 14.8435 17.4856C15.6291 16.9601 15.6291 16.0965 14.8435 15.5763C13.9539 14.978 12.4868 14.978 11.5867 15.5763Z" fill="#B36116"/>
</svg>
