<svg width="26" height="25" viewBox="0 0 26 25" fill="none" xmlns="http://www.w3.org/2000/svg">
<rect x="0.729004" y="6.10352e-05" width="24.972" height="24.972" rx="3.1215" fill="#FFDDBD"/>
<path d="M17.1219 9.28647L14.0316 7.50201C13.527 7.21067 12.9027 7.21067 12.3928 7.50201L9.30776 9.28647C8.80312 9.57781 8.49097 10.1189 8.49097 10.7067V14.2653C8.49097 14.8479 8.80312 15.389 9.30776 15.6855L12.398 17.47C12.9027 17.7613 13.527 17.7613 14.0368 17.47L17.1271 15.6855C17.6317 15.3942 17.9439 14.8531 17.9439 14.2653V10.7067C17.9387 10.1189 17.6265 9.58301 17.1219 9.28647ZM13.2148 10.0616C13.886 10.0616 14.427 10.6027 14.427 11.2738C14.427 11.9449 13.886 12.486 13.2148 12.486C12.5437 12.486 12.0026 11.9449 12.0026 11.2738C12.0026 10.6079 12.5437 10.0616 13.2148 10.0616ZM14.6091 14.9104H11.8206C11.3992 14.9104 11.1546 14.4421 11.3888 14.0936C11.7425 13.5681 12.4293 13.2143 13.2148 13.2143C14.0004 13.2143 14.6871 13.5681 15.0409 14.0936C15.275 14.4369 15.0253 14.9104 14.6091 14.9104Z" fill="#B36116"/>
</svg>
