<svg width="26" height="26" viewBox="0 0 26 26" fill="none" xmlns="http://www.w3.org/2000/svg">
<rect x="0.729004" y="0.289703" width="24.972" height="24.972" rx="3.1215" fill="#F83838"/>
<path d="M15.3948 7.57324H11.0351C9.14139 7.57324 8.01245 8.70218 8.01245 10.5959V14.9504C8.01245 16.8493 9.14139 17.9782 11.0351 17.9782H15.3896C17.2833 17.9782 18.4122 16.8493 18.4122 14.9556V10.5959C18.4174 8.70218 17.2885 7.57324 15.3948 7.57324ZM10.9415 15.9753C10.9415 16.1886 10.7646 16.3655 10.5513 16.3655C10.338 16.3655 10.1611 16.1886 10.1611 15.9753V14.8984C10.1611 14.685 10.338 14.5082 10.5513 14.5082C10.7646 14.5082 10.9415 14.685 10.9415 14.8984V15.9753ZM13.6051 15.9753C13.6051 16.1886 13.4282 16.3655 13.2149 16.3655C13.0016 16.3655 12.8248 16.1886 12.8248 15.9753V13.8162C12.8248 13.6029 13.0016 13.426 13.2149 13.426C13.4282 13.426 13.6051 13.6029 13.6051 13.8162V15.9753ZM16.2688 15.9753C16.2688 16.1886 16.0919 16.3655 15.8786 16.3655C15.6653 16.3655 15.4884 16.1886 15.4884 15.9753V12.7393C15.4884 12.526 15.6653 12.3491 15.8786 12.3491C16.0919 12.3491 16.2688 12.526 16.2688 12.7393V15.9753ZM16.2688 11.0953C16.2688 11.3086 16.0919 11.4855 15.8786 11.4855C15.6653 11.4855 15.4884 11.3086 15.4884 11.0953V10.5907C14.1618 11.9537 12.5022 12.9162 10.6449 13.3792C10.6137 13.3896 10.5825 13.3896 10.5513 13.3896C10.3744 13.3896 10.2183 13.27 10.1715 13.0931C10.1195 12.885 10.2443 12.6717 10.4576 12.6197C12.2109 12.1827 13.7716 11.2618 15.0098 9.96119H14.3595C14.1462 9.96119 13.9693 9.7843 13.9693 9.571C13.9693 9.3577 14.1462 9.18081 14.3595 9.18081H15.8838C15.9046 9.18081 15.9202 9.19122 15.941 9.19122C15.9671 9.19642 15.9931 9.19642 16.0191 9.20682C16.0451 9.21723 16.0659 9.23284 16.0919 9.24844C16.1075 9.25885 16.1231 9.26405 16.1387 9.27446C16.1439 9.27966 16.1439 9.28486 16.1491 9.28486C16.17 9.30567 16.1856 9.32648 16.2012 9.34729C16.2168 9.3681 16.2324 9.38371 16.2376 9.40452C16.248 9.42533 16.248 9.44614 16.2532 9.47215C16.2584 9.49816 16.2688 9.52418 16.2688 9.55539C16.2688 9.56059 16.274 9.5658 16.274 9.571V11.0953H16.2688Z" fill="white"/>
</svg>
