<svg width="16" height="16" viewBox="0 0 16 16" fill="none" xmlns="http://www.w3.org/2000/svg">
<path d="M9.63621 5.46963C11.399 7.2342 11.3748 10.0633 9.64683 11.8008C9.64359 11.8043 9.63975 11.8081 9.63621 11.8117L7.65358 13.7943C5.9049 15.543 3.05991 15.5427 1.3115 13.7943C-0.437168 12.0459 -0.437168 9.20063 1.3115 7.45226L2.40626 6.3575C2.69658 6.06719 3.19654 6.26014 3.21153 6.67042C3.23065 7.19328 3.32441 7.71858 3.49742 8.22587C3.55601 8.39764 3.51415 8.58764 3.38581 8.71598L2.99969 9.10209C2.17283 9.92895 2.1469 11.2753 2.96562 12.1103C3.79242 12.9534 5.15141 12.9585 5.98456 12.1253L7.9672 10.143C8.79893 9.31124 8.79545 7.96688 7.9672 7.13863C7.85801 7.02965 7.74802 6.94497 7.6621 6.88582C7.60132 6.84408 7.55114 6.78872 7.51555 6.72415C7.47997 6.65957 7.45997 6.58757 7.45714 6.5139C7.44546 6.20214 7.55592 5.88087 7.80227 5.63452L8.42344 5.01333C8.58633 4.85044 8.84186 4.83043 9.03074 4.96226C9.24705 5.1133 9.44966 5.28308 9.63621 5.46963ZM13.7943 1.31135C12.0459 -0.437081 9.20089 -0.437317 7.45222 1.31135L5.46958 3.29398C5.46604 3.29752 5.4622 3.30136 5.45896 3.3049C3.73106 5.04242 3.70683 7.87147 5.46958 9.63604C5.65613 9.82258 5.85872 9.99235 6.07502 10.1434C6.2639 10.2752 6.51946 10.2552 6.68232 10.0923L7.30349 9.47112C7.54984 9.22476 7.6603 8.9035 7.64862 8.59174C7.6458 8.51806 7.62579 8.44606 7.59021 8.38149C7.55462 8.31692 7.50444 8.26155 7.44366 8.21982C7.35775 8.16066 7.24776 8.07599 7.13856 7.967C6.31031 7.13875 6.30683 5.7944 7.13856 4.96267L9.1212 2.98033C9.95435 2.14718 11.3133 2.1522 12.1401 2.99538C12.9589 3.83033 12.933 5.17669 12.1061 6.00355L11.72 6.38966C11.5916 6.518 11.5497 6.708 11.6083 6.87977C11.7814 7.38705 11.8751 7.91236 11.8942 8.43522C11.9092 8.8455 12.4092 9.03845 12.6995 8.74814L13.7943 7.65338C15.543 5.90504 15.543 3.05973 13.7943 1.31135Z" fill="#8C939D"/>
</svg>
