<svg width="26" height="26" viewBox="0 0 26 26" fill="none" xmlns="http://www.w3.org/2000/svg">
<rect x="0.729004" y="0.588745" width="24.972" height="24.972" rx="3.1215" fill="#FFDDBD"/>
<path d="M17.8504 12.617V10.3331C17.8504 9.90646 17.5279 9.42263 17.1273 9.26135L14.2295 8.07519C13.5792 7.80986 12.8456 7.80986 12.1953 8.07519L9.29753 9.26135C8.90214 9.42263 8.57959 9.90646 8.57959 10.3331V12.617C8.57959 15.161 10.4265 17.5437 12.9497 18.2409C13.1214 18.2877 13.3087 18.2877 13.4803 18.2409C16.0035 17.5437 17.8504 15.161 17.8504 12.617ZM13.6052 13.5274V14.8957C13.6052 15.109 13.4283 15.2858 13.215 15.2858C13.0017 15.2858 12.8248 15.109 12.8248 14.8957V13.5274C12.2994 13.3609 11.9144 12.8719 11.9144 12.2944C11.9144 11.5765 12.4971 10.9938 13.215 10.9938C13.933 10.9938 14.5156 11.5765 14.5156 12.2944C14.5156 12.8771 14.1306 13.3609 13.6052 13.5274Z" fill="#B36116"/>
</svg>
