<svg width="26" height="26" viewBox="0 0 26 26" fill="none" xmlns="http://www.w3.org/2000/svg">
<rect x="0.729004" y="0.887817" width="24.972" height="24.972" rx="3.1215" fill="#FFDDBD"/>
<path d="M17.429 11.9275C16.4873 11.9275 16.1023 11.2616 16.5706 10.4448C16.8411 9.97141 16.6798 9.36792 16.2064 9.09739L15.3063 8.58234C14.8953 8.33783 14.3647 8.4835 14.1202 8.89449L14.063 8.99334C13.5947 9.81013 12.8248 9.81013 12.3513 8.99334L12.2941 8.89449C12.06 8.4835 11.5293 8.33783 11.1183 8.58234L10.2183 9.09739C9.74488 9.36792 9.5836 9.97661 9.85413 10.45C10.3276 11.2616 9.94258 11.9275 9.00092 11.9275C8.45987 11.9275 8.01245 12.3698 8.01245 12.916V13.8317C8.01245 14.3727 8.45466 14.8201 9.00092 14.8201C9.94258 14.8201 10.3276 15.486 9.85413 16.3028C9.5836 16.7763 9.74488 17.3798 10.2183 17.6503L11.1183 18.1653C11.5293 18.4099 12.06 18.2642 12.3045 17.8532L12.3617 17.7543C12.83 16.9375 13.5999 16.9375 14.0734 17.7543L14.1306 17.8532C14.3751 18.2642 14.9058 18.4099 15.3168 18.1653L16.2168 17.6503C16.6902 17.3798 16.8515 16.7711 16.581 16.3028C16.1075 15.486 16.4925 14.8201 17.4342 14.8201C17.9752 14.8201 18.4226 14.3779 18.4226 13.8317V12.916C18.4174 12.375 17.9752 11.9275 17.429 11.9275ZM13.2149 15.0646C12.2837 15.0646 11.5241 14.3051 11.5241 13.3738C11.5241 12.4426 12.2837 11.683 13.2149 11.683C14.1462 11.683 14.9058 12.4426 14.9058 13.3738C14.9058 14.3051 14.1462 15.0646 13.2149 15.0646Z" fill="#B36116"/>
</svg>
