<svg width="18" height="19" viewBox="0 0 18 19" fill="none" xmlns="http://www.w3.org/2000/svg">
<g clip-path="url(#clip0_121_629)">
<path d="M14.9085 1.5378C14.9085 1.14235 14.5879 0.821777 14.1925 0.821777H4.1681C3.77265 0.821777 3.45207 1.14235 3.45207 1.5378C3.45207 1.93326 3.77265 2.25383 4.1681 2.25383H14.1925C14.5879 2.25383 14.9085 1.93326 14.9085 1.5378ZM3.45207 17.2904C3.45207 17.6859 3.77265 18.0064 4.1681 18.0064H14.1925C14.5879 18.0064 14.9085 17.6859 14.9085 17.2904C14.9085 16.895 14.5879 16.5744 14.1925 16.5744H4.1681C3.77265 16.5744 3.45207 16.895 3.45207 17.2904ZM14.9085 3.68589H3.45207C3.07227 3.68589 2.70802 3.83676 2.43946 4.10533C2.1709 4.37389 2.02002 4.73814 2.02002 5.11794V13.7103C2.02002 14.0901 2.1709 14.4543 2.43946 14.7229C2.70802 14.9915 3.07227 15.1423 3.45207 15.1423H14.9085C15.2883 15.1423 15.6526 14.9915 15.9211 14.7229C16.1897 14.4543 16.3406 14.0901 16.3406 13.7103V5.11794C16.3406 4.73814 16.1897 4.37389 15.9211 4.10533C15.6526 3.83676 15.2883 3.68589 14.9085 3.68589Z" fill="#8C939D"/>
<path d="M8.27524 12.1658L5.71544 9.66932C5.56165 9.51934 5.56165 9.27616 5.71544 9.12616L6.27236 8.58299C6.42615 8.43299 6.67552 8.43299 6.82931 8.58299L8.55371 10.2647L12.2472 6.6626C12.401 6.51261 12.6503 6.51261 12.8041 6.6626L13.3611 7.20577C13.5148 7.35575 13.5148 7.59894 13.3611 7.74894L8.83218 12.1658C8.67838 12.3158 8.42903 12.3158 8.27524 12.1658Z" fill="white"/>
</g>
<defs>
<clipPath id="clip0_121_629">
<rect width="17.1847" height="17.1847" fill="white" transform="translate(0.588379 0.821899)"/>
</clipPath>
</defs>
</svg>
